<mxfile host="app.diagrams.net" modified="2021-11-18T18:30:01.069Z" agent="5.0 (Macintosh; Intel Mac OS X 10_15_7) AppleWebKit/537.36 (KHTML, like Gecko) Chrome/95.0.4638.69 Safari/537.36" etag="JpDEly9JHOSsLEeGUzg6" version="15.8.2" type="github">
  <diagram id="6ko1-yFrxwayHxXGvpoK" name="Page-1">
    <mxGraphModel dx="706" dy="998" grid="1" gridSize="10" guides="1" tooltips="1" connect="1" arrows="1" fold="1" page="1" pageScale="1" pageWidth="850" pageHeight="1100" math="0" shadow="0">
      <root>
        <mxCell id="0" />
        <mxCell id="1" parent="0" />
        <mxCell id="-5ycdc_25xC9KbkTk0qQ-3" value="UML Project&lt;br&gt;Deric Tran" style="text;html=1;strokeColor=none;fillColor=none;align=center;verticalAlign=middle;whiteSpace=wrap;rounded=0;" vertex="1" parent="1">
          <mxGeometry x="330" y="40" width="60" height="30" as="geometry" />
        </mxCell>
      </root>
    </mxGraphModel>
  </diagram>
</mxfile>
